<?xml version="1.0" standalone="no"?>
<!DOCTYPE svg PUBLIC "-//W3C//DTD SVG 20010904//EN"
 "http://www.w3.org/TR/2001/REC-SVG-20010904/DTD/svg10.dtd">
<svg version="1.0" xmlns="http://www.w3.org/2000/svg"
 width="50.000000pt" height="50.000000pt" viewBox="0 0 50.000000 50.000000"
 preserveAspectRatio="xMidYMid meet">

<g transform="translate(0.000000,50.000000) scale(0.100000,-0.100000)"
fill="#000000" stroke="none">
<path d="M314 471 c-12 -5 -25 -14 -29 -20 -4 -7 -51 -11 -124 -11 -78 0 -121
-4 -129 -12 -17 -17 -17 -379 0 -396 17 -17 379 -17 396 0 8 8 12 49 12 120 0
90 3 114 21 148 27 52 21 103 -19 143 -31 31 -91 44 -128 28z m95 -25 c29 -16
51 -53 51 -89 0 -13 -20 -54 -45 -91 -25 -38 -45 -75 -45 -82 0 -8 -4 -14 -10
-14 -5 0 -10 6 -10 14 0 7 -20 44 -45 82 -25 37 -45 80 -45 94 1 76 80 121
149 86z m-164 -86 l0 -60 -102 -102 -103 -103 0 156 c0 86 3 159 7 162 3 4 50
7 102 7 l96 0 0 -60z m32 -96 c2 -5 -46 -59 -107 -119 -87 -87 -112 -107 -122
-97 -10 10 10 35 97 122 103 103 124 118 132 94z m38 -51 l18 -28 -21 19 c-12
11 -22 23 -22 28 0 14 7 9 25 -19z m105 -50 c0 -65 0 -66 -20 -48 -11 10 -20
24 -20 32 0 17 27 83 34 83 4 0 6 -30 6 -67z m-70 -28 c59 -59 72 -77 62 -87
-10 -10 -28 3 -87 62 -41 41 -75 80 -75 87 0 28 29 10 100 -62z m-50 -30 l64
-65 -134 0 -134 0 64 65 c35 36 67 65 70 65 3 0 35 -29 70 -65z"/>
<path d="M330 385 c-15 -18 -10 -45 13 -59 34 -22 73 27 47 59 -16 19 -44 19
-60 0z m46 -16 c10 -17 -13 -36 -27 -22 -12 12 -4 33 11 33 5 0 12 -5 16 -11z"/>
<path d="M80 380 c-24 -24 -25 -48 -4 -78 28 -41 104 -18 104 31 0 12 -9 17
-30 17 -16 0 -30 -4 -30 -10 0 -5 7 -10 15 -10 8 0 15 -4 15 -9 0 -16 -19 -23
-41 -16 -27 9 -23 58 6 63 11 2 27 5 35 8 13 4 13 6 0 14 -24 15 -48 12 -70
-10z"/>
</g>
</svg>
