<?xml version="1.0" standalone="no"?>
<!DOCTYPE svg PUBLIC "-//W3C//DTD SVG 20010904//EN"
 "http://www.w3.org/TR/2001/REC-SVG-20010904/DTD/svg10.dtd">
<svg version="1.0" xmlns="http://www.w3.org/2000/svg"
 width="50.000000pt" height="50.000000pt" viewBox="0 0 50.000000 50.000000"
 preserveAspectRatio="xMidYMid meet">

<g transform="translate(0.000000,50.000000) scale(0.100000,-0.100000)"
fill="#000000" stroke="none">
<path d="M140 462 c-33 -27 -37 -89 -8 -132 44 -65 97 -41 105 47 4 39 1 53
-17 76 -25 31 -49 34 -80 9z"/>
<path d="M290 460 c-36 -36 -38 -109 -4 -158 36 -52 114 8 114 88 0 74 -65
115 -110 70z"/>
<path d="M31 298 c-28 -29 -34 -53 -26 -94 12 -67 80 -82 110 -24 21 40 19 83
-6 114 -25 32 -51 33 -78 4z"/>
<path d="M408 293 c-51 -55 -62 -107 -30 -136 26 -23 55 -21 79 6 45 49 55 96
27 135 -20 29 -45 28 -76 -5z"/>
<path d="M149 161 c-74 -75 -82 -98 -48 -132 19 -19 28 -20 68 -13 25 4 85 7
132 5 69 -2 90 1 103 14 24 24 20 52 -11 72 -15 10 -50 42 -78 71 -33 34 -59
52 -74 52 -16 0 -46 -23 -92 -69z"/>
</g>
</svg>
