<?xml version="1.0" standalone="no"?>
<!DOCTYPE svg PUBLIC "-//W3C//DTD SVG 20010904//EN"
 "http://www.w3.org/TR/2001/REC-SVG-20010904/DTD/svg10.dtd">
<svg version="1.0" xmlns="http://www.w3.org/2000/svg"
 width="840.000000pt" height="840.000000pt" viewBox="0 0 840.000000 840.000000"
 preserveAspectRatio="xMidYMid meet">

<g transform="translate(0.000000,840.000000) scale(0.100000,-0.100000)"
fill="#000000" stroke="none">
<path d="M0 4200 l0 -4200 4200 0 4200 0 0 4200 0 4200 -4200 0 -4200 0 0
-4200z m2700 2350 l0 -40 -150 0 -150 0 0 -1420 0 -1420 150 0 150 0 0 -40 0
-40 -190 0 -190 0 0 1500 0 1500 190 0 190 0 0 -40z m3380 -1460 l0 -1500
-190 0 -190 0 0 40 0 40 150 0 150 0 0 1420 0 1420 -150 0 -150 0 0 40 0 40
190 0 190 0 0 -1500z m-2154 898 c122 -82 202 -300 175 -475 -45 -291 -288
-313 -416 -38 -84 179 -70 403 32 496 42 39 63 48 114 49 36 0 58 -7 95 -32z
m707 21 c111 -57 160 -217 126 -405 -13 -73 -66 -185 -112 -239 -48 -56 -117
-89 -173 -82 -191 21 -243 382 -89 612 70 104 174 152 248 114z m-1073 -667
c78 -36 178 -139 219 -225 76 -160 57 -301 -49 -355 -90 -47 -221 -2 -326 111
-254 272 -142 607 156 469z m1475 18 c83 -33 122 -148 91 -269 -23 -92 -62
-157 -136 -232 -179 -181 -361 -165 -402 35 -23 116 27 257 127 357 107 108
222 147 320 109z m-739 -289 c86 -39 149 -131 161 -234 8 -73 23 -98 124 -203
127 -134 152 -192 125 -287 -30 -102 -129 -183 -239 -194 -40 -4 -69 1 -128
21 -99 34 -180 35 -274 1 -82 -29 -122 -31 -195 -9 -74 22 -152 100 -174 175
-31 105 -6 162 134 298 87 86 99 106 111 187 5 37 18 85 28 108 23 52 84 114
136 137 52 24 138 24 191 0z m-526 -2140 c141 -11 206 -51 231 -143 23 -87
-26 -204 -130 -306 l-63 -63 41 -36 c60 -51 85 -104 85 -183 0 -190 -181 -334
-419 -333 -105 0 -164 18 -182 55 -11 22 -6 48 36 199 136 480 181 645 181
658 0 8 -14 1 -35 -18 -20 -17 -39 -31 -44 -31 -28 0 -45 76 -23 103 6 7 39
26 74 42 35 17 65 33 66 38 11 24 37 38 61 32 14 -3 69 -10 121 -14z m-1440
-155 c0 -73 -5 -191 -11 -262 -6 -71 -9 -157 -7 -192 l3 -62 64 152 c36 84 99
226 142 315 63 132 82 164 107 177 34 18 82 24 100 12 19 -12 14 -80 -18 -231
-124 -586 -134 -667 -94 -735 13 -24 30 -37 50 -40 l29 -6 -34 -18 c-18 -10
-54 -18 -79 -19 -40 0 -49 4 -79 36 -26 29 -33 45 -33 76 0 46 47 267 120 564
28 115 50 213 48 219 -6 16 -175 -343 -225 -476 -24 -65 -47 -141 -50 -168 -4
-36 -12 -54 -31 -68 -66 -52 -103 1 -117 170 -6 69 -2 140 25 414 5 54 6 105
1 113 -10 19 -29 -49 -111 -407 -77 -331 -94 -389 -132 -434 -26 -32 -34 -36
-78 -36 -58 0 -102 31 -120 86 -15 46 -15 158 0 214 13 51 60 141 93 183 20
24 25 26 41 14 17 -13 17 -16 -7 -63 -37 -73 -57 -154 -57 -228 0 -63 14 -116
31 -116 24 0 66 127 110 330 33 153 98 375 152 515 28 74 36 86 67 99 53 22
63 24 83 14 15 -8 17 -25 17 -142z m2891 92 c40 -75 -47 -371 -158 -539 -20
-30 -25 -51 -26 -115 l-2 -79 29 -3 c25 -3 42 10 131 101 56 58 116 129 132
159 33 58 98 123 139 138 33 13 80 13 105 0 10 -6 27 -26 37 -46 l18 -35 13
63 c28 135 93 353 108 366 9 6 29 12 45 12 41 0 52 -29 45 -124 -6 -102 -47
-221 -129 -376 -56 -107 -61 -119 -62 -185 l-1 -70 29 -3 c25 -3 42 10 137
108 95 97 111 119 125 167 9 30 13 65 10 78 -5 21 -2 26 21 31 16 3 33 7 39 9
17 5 54 -24 54 -42 0 -9 -18 -72 -40 -139 -43 -134 -48 -174 -24 -198 24 -25
44 -19 85 24 79 83 150 251 129 305 -8 22 -6 27 20 40 38 20 56 19 79 -4 16
-16 18 -26 10 -64 -4 -25 -15 -61 -23 -81 -22 -52 -80 -295 -131 -541 -24
-118 -47 -220 -50 -225 -11 -18 -51 -10 -74 14 l-23 24 22 79 c17 62 59 223
106 408 4 17 2 17 -18 -5 -49 -53 -79 -70 -125 -70 -38 0 -50 5 -79 34 -34 34
-38 46 -35 124 l2 43 -63 -66 c-71 -76 -134 -123 -177 -131 -38 -8 -77 28 -86
80 l-7 36 -39 -34 c-21 -19 -51 -42 -68 -50 -36 -19 -100 -20 -123 -2 -25 19
-48 79 -48 125 l0 40 -82 -83 c-88 -88 -144 -122 -184 -112 -29 8 -64 60 -64
95 l0 25 -27 -26 c-46 -41 -93 -70 -128 -78 -68 -15 -125 44 -125 130 l0 39
-77 -78 c-90 -91 -137 -114 -179 -86 -14 9 -29 28 -35 43 l-10 26 -22 -27
c-26 -32 -84 -57 -130 -57 -40 0 -96 35 -114 70 -19 37 -16 121 7 219 26 108
48 145 95 161 63 21 66 11 33 -82 -61 -169 -71 -237 -41 -270 25 -28 76 -23
116 12 32 28 35 35 40 102 5 82 48 217 74 236 9 6 29 12 45 12 27 0 28 -2 28
-52 0 -63 -19 -137 -48 -195 -16 -30 -20 -51 -15 -75 13 -70 41 -75 105 -19
38 34 75 80 203 253 85 115 199 144 247 62 l20 -35 39 153 c67 262 74 278 131
278 18 0 31 -7 39 -22z m-2261 -384 c0 -13 -18 -81 -41 -151 -43 -137 -46
-186 -9 -198 42 -13 103 52 165 175 32 62 38 86 39 138 1 61 2 62 33 73 18 6
42 8 53 4 35 -11 34 -48 -5 -172 -37 -118 -102 -392 -145 -616 -27 -139 -36
-156 -75 -142 -54 20 -57 38 -20 170 104 378 108 398 74 353 -46 -62 -120 -84
-179 -53 -68 35 -76 115 -30 280 17 60 30 120 28 134 -3 22 3 28 32 37 44 15
80 0 80 -32z"/>
<path d="M3693 2862 c-6 -4 -17 -21 -23 -37 -17 -45 -110 -367 -110 -381 0
-10 11 -9 45 3 25 8 62 13 83 11 33 -4 41 0 84 44 115 118 146 308 57 353 -29
16 -116 20 -136 7z"/>
<path d="M3516 2271 c-47 -200 -68 -311 -62 -328 9 -23 127 -13 184 16 163 83
235 297 133 395 l-29 28 -65 -26 c-80 -32 -82 -32 -112 -2 l-24 24 -25 -107z"/>
<path d="M4861 2464 c-38 -31 -98 -149 -107 -209 -7 -53 9 -101 37 -110 30
-10 87 24 137 82 51 58 72 121 46 136 -8 5 -14 24 -14 45 0 44 -23 82 -50 82
-10 0 -32 -11 -49 -26z"/>
<path d="M5462 2453 c-42 -45 -89 -140 -98 -200 -7 -50 9 -99 37 -108 74 -24
234 172 183 223 -8 7 -14 28 -14 45 0 41 -25 77 -52 77 -11 0 -36 -17 -56 -37z"/>
</g>
</svg>
